<svg width="16" height="278" viewBox="0 0 16 278" fill="none" xmlns="http://www.w3.org/2000/svg">
<rect x="0.5" y="-0.5" width="15" height="15" transform="matrix(1 0 0 -1 0 251)" stroke="#2084BA"/>
<rect width="16" height="32" transform="matrix(1 0 0 -1 0 232)" fill="#C83A44"/>
<rect x="0.5" y="-0.5" width="15" height="63" transform="matrix(1 0 0 -1 0 195)" stroke="#CAEDFF"/>
<rect width="16" height="128" transform="matrix(1 0 0 -1 0 128)" fill="#FFC6CA"/>
<rect x="0.5" y="-0.5" width="15" height="3" transform="matrix(1 0 0 -1 0 271)" stroke="#2084BA"/>
<rect width="16" height="2" transform="matrix(1 0 0 -1 0 278)" fill="#C83A44"/>
<rect width="16" height="8" transform="matrix(1 0 0 -1 0 264)" fill="#FFC6CA"/>
</svg>
