<svg width="126" height="143" viewBox="0 0 126 143" fill="none" xmlns="http://www.w3.org/2000/svg">
<rect width="36" height="36" transform="matrix(4.37114e-08 -1 -1 -4.37114e-08 126 143)" fill="#C83A44"/>
<rect width="36" height="36" transform="matrix(4.37114e-08 -1 -1 -4.37114e-08 126 107)" fill="#C83A44"/>
<rect width="36" height="36" transform="matrix(4.37114e-08 -1 -1 -4.37114e-08 90 143)" fill="#C83A44"/>
<rect width="24" height="24" transform="matrix(4.37114e-08 -1 -1 -4.37114e-08 78 95)" fill="#2084BA"/>
<rect x="-0.5" y="-0.5" width="23" height="23" transform="matrix(4.37114e-08 -1 -1 -4.37114e-08 23 27)" stroke="#2084BA"/>
<rect width="16" height="16" transform="matrix(4.37114e-08 -1 -1 -4.37114e-08 108 40)" fill="#CAEDFF"/>
<rect x="-0.5" y="-0.5" width="15" height="15" transform="matrix(4.37114e-08 -1 -1 -4.37114e-08 69 55)" stroke="#C83A44"/>
<rect width="8" height="8" transform="matrix(4.37114e-08 -1 -1 -4.37114e-08 33 107)" fill="#C83A44"/>
<rect width="8" height="8" transform="matrix(4.37114e-08 -1 -1 -4.37114e-08 70 8)" fill="#FFC6CA"/>
<rect x="-0.5" y="-0.5" width="7" height="7" transform="matrix(4.37114e-08 -1 -1 -4.37114e-08 11 68)" stroke="#2084BA"/>
</svg>
