<svg width="174" height="136" viewBox="0 0 174 136" fill="none" xmlns="http://www.w3.org/2000/svg">
<rect x="-0.5" y="0.5" width="47" height="135" transform="matrix(-1 0 0 1 173 0)" stroke="#C83A44"/>
<rect x="-0.5" y="0.5" width="35" height="35" transform="matrix(-1 0 0 1 114 60)" fill="#CAEDFF" stroke="#D9D9D9"/>
<rect x="-0.5" y="0.5" width="7" height="7" transform="matrix(-1 0 0 1 50 74)" fill="#2084BA" stroke="#D9D9D9"/>
<rect x="-0.5" y="0.5" width="23" height="23" transform="matrix(-1 0 0 1 47 9)" fill="#2084BA" stroke="#D9D9D9"/>
<rect x="-0.5" y="0.5" width="23" height="23" transform="matrix(-1 0 0 1 23 104)" fill="#C83A44" stroke="#D9D9D9"/>
<rect x="-0.5" y="0.5" width="23" height="23" transform="matrix(-1 0 0 1 106 9)" fill="#F9E0E3" stroke="#D9D9D9"/>
<rect x="-0.5" y="0.5" width="15" height="15" transform="matrix(-1 0 0 1 86 120)" fill="#F9E0E3" stroke="#D9D9D9"/>
</svg>
