<svg width="118" height="16" viewBox="0 0 118 16" fill="none" xmlns="http://www.w3.org/2000/svg">
<path opacity="0.88" d="M117.989 2.20645C117.503 3.39471 117.06 4.48998 116.531 5.77123C103.85 6.21554 91.05 6.32914 78.3149 7.19708C59.0988 8.51966 39.9151 10.2142 20.7531 12.1051C16.0976 12.5701 11.5825 14.3783 7.035 15.6699C3.6757 16.6205 1.15892 15.5045 0.283988 12.4977C-0.677356 9.22229 0.824054 6.8561 4.4534 6.22581C22.4921 3.09501 40.5956 0.49124 59.0016 0.408578C70.2893 0.356915 81.5877 0.0675855 92.8754 0.00558959C98.7839 -0.0254084 104.692 0.0676007 110.59 0.408578C112.945 0.542903 115.256 1.50381 118 2.18577L117.989 2.20645Z" fill="#2084BA"/>
</svg>
